<?xml version="1.0"?>
<svg xmlns="http://www.w3.org/2000/svg" xmlns:xlink="http://www.w3.org/1999/xlink" version="1.1" id="Capa_1" x="0px" y="0px" viewBox="0 0 438.857 438.857" style="enable-background:new 0 0 438.857 438.857;" xml:space="preserve" width="512px" height="512px" class=""><g><path style="fill:#155353" d="M219.429,438.857C98.22,438.857,0,340.637,0,219.429S98.22,0,219.429,0  s219.429,98.22,219.429,219.429S340.637,438.857,219.429,438.857z M219.429,31.347c-103.967,0-188.082,84.114-188.082,188.082  S115.461,407.51,219.429,407.51S407.51,323.396,407.51,219.429S323.396,31.347,219.429,31.347z" data-original="#1185E0" class="active-path" data-old_color="#1185E0"/><path style="fill:#155353" d="M308.245,203.755h-73.143v-73.143c0-8.882-6.792-15.673-15.673-15.673  c-8.882,0-15.673,6.792-15.673,15.673v73.143h-73.143c-8.882,0-15.673,6.792-15.673,15.673c0,8.882,6.792,15.673,15.673,15.673  h73.143v73.143c0,8.882,6.792,15.673,15.673,15.673c8.882,0,15.673-6.792,15.673-15.673v-73.143h73.143  c8.882,0,15.673-6.792,15.673-15.673C323.918,210.547,317.126,203.755,308.245,203.755z" data-original="#4DCFE0" class="" data-old_color="#4DCFE0"/></g> </svg>
